<svg width="220" height="220" viewBox="0 0 220 220" fill="none" xmlns="http://www.w3.org/2000/svg">
<path d="M0 0H220V220H0V0Z" fill="#F4F0FF"/>
<path d="M41.6147 151.54C32.4034 144.568 24.9985 136.008 19.4001 125.865C13.8017 115.717 11 104.114 11 91.0477C11 78.2203 13.0503 66.7922 17.1508 56.7683C21.2613 46.7543 27.3922 38.289 35.5435 31.3724C43.6898 24.4657 53.8864 19.1724 66.1382 15.4975C78.4 11.8325 92.6772 10 108.975 10C123.158 10 136.35 11.9221 148.547 15.7763C160.739 19.6405 171.319 25.2774 180.276 32.687C189.234 40.0966 196.26 49.2441 201.356 60.1344C206.452 71.0198 209 83.5036 209 97.5809C209 112.012 206.104 124.177 200.321 134.071C194.534 143.976 186.606 151.291 176.534 156.021L204.899 161.439V205.14L105.053 184.405H102.824C85.3968 184.405 72.5528 186.546 64.287 190.839C56.0163 195.141 52.5677 201.525 53.9362 210H14.5432C10.5621 193.811 11 180.83 15.8569 171.06C20.7139 161.285 29.2981 154.776 41.6147 151.54ZM110.468 138.095C130.134 138.095 144.969 134.574 154.976 127.538C164.994 120.512 170.005 110.772 170.005 98.3179C170.005 90.973 168.418 84.6539 165.248 79.3556C162.073 74.0673 157.783 69.745 152.369 66.3888C146.955 63.0276 140.605 60.5727 133.319 59.019C126.044 57.4654 118.311 56.6886 110.109 56.6886C90.3234 56.6886 75.3595 60.1046 65.2226 66.9465C55.0807 73.7984 50.0148 83.6381 50.0148 96.4655C50.0148 102.929 51.4729 108.745 54.394 113.914C57.3101 119.078 61.351 123.435 66.5164 126.98C71.6919 130.536 77.763 133.28 84.73 135.207C91.6969 137.129 99.2809 138.095 107.482 138.095H110.468Z" fill="#3F00FF"/>
</svg>
