<svg width="1450" height="1450" viewBox="0 0 1450 1450" fill="none" xmlns="http://www.w3.org/2000/svg">
<path d="M1450 725C1450 1125.41 1125.41 1450 725 1450C324.594 1450 0 1125.41 0 725C0 324.594 324.594 0 725 0C1125.41 0 1450 324.594 1450 725Z" fill="#F0EBE0"/>
<path d="M1206.3 1149.8C1209.43 1149.8 1211 1154.5 1211 1163.9C1211 1173.3 1209.43 1178 1206.3 1178L1131.09 1175.65C1115.42 1174.08 1091.92 1173.3 1060.58 1173.3L912.519 1175.65C890.584 1177.22 860.814 1178 823.21 1178C818.51 1178 816.159 1173.3 816.159 1163.9C816.159 1154.5 818.51 1149.8 823.21 1149.8C852.98 1149.8 874.132 1148.24 886.667 1145.1C900.768 1140.4 907.819 1132.57 907.819 1121.61C907.819 1112.21 897.634 1091.06 877.266 1058.16L691.597 778.544L536.481 1001.77C523.946 1020.57 512.978 1038.58 503.577 1055.81C495.743 1071.48 491.826 1085.58 491.826 1098.11C491.826 1132.57 538.831 1149.8 632.841 1149.8C637.541 1149.8 639.891 1154.5 639.891 1163.9C639.891 1173.3 637.541 1178 632.841 1178C590.536 1178 559.2 1177.22 538.831 1175.65L397.816 1173.3L315.558 1175.65C299.89 1177.22 275.604 1178 242.7 1178C239.567 1178 238 1173.3 238 1163.9C238 1154.5 239.567 1149.8 242.7 1149.8C281.871 1149.8 324.176 1136.49 369.614 1109.86C416.618 1081.66 458.923 1040.93 496.527 987.671L670.444 745.648L484.775 466.029C445.605 406.502 404.867 364.206 362.563 339.142C320.258 312.512 281.088 299.197 245.051 299.197C241.917 299.197 240.35 294.497 240.35 285.098C240.35 275.699 241.917 271 245.051 271C277.954 271 302.24 271.783 317.908 273.35L390.766 275.699L538.831 273.35C560.767 271.783 590.536 271 628.14 271C631.274 271 632.841 275.699 632.841 285.098C632.841 294.497 631.274 299.197 628.14 299.197C598.37 299.197 576.435 301.547 562.333 306.246C549.799 309.379 543.531 316.428 543.531 327.394C543.531 336.793 553.716 357.94 574.085 390.837L743.302 646.959L877.266 447.231C910.169 401.802 926.621 368.906 926.621 348.541C926.621 331.31 915.653 318.778 893.717 310.946C871.782 303.113 834.178 299.197 780.906 299.197C777.772 299.197 776.205 294.497 776.205 285.098C776.205 275.699 777.772 271 780.906 271C823.21 271 855.33 271.783 877.266 273.35L1018.28 275.699L1100.54 273.35C1116.21 271.783 1140.49 271 1173.4 271C1176.53 271 1178.1 275.699 1178.1 285.098C1178.1 294.497 1176.53 299.197 1173.4 299.197C1132.66 299.197 1090.35 312.512 1046.48 339.142C1002.61 364.206 960.308 404.935 919.57 461.329L762.104 675.155L966.575 982.971C1005.75 1042.5 1046.48 1085.58 1088.79 1112.21C1131.09 1137.27 1170.26 1149.8 1206.3 1149.8Z" fill="#0B1114"/>
<path d="M480.278 845.883C478.44 847.122 476.342 847.645 473.985 847.453C471.934 847.055 470.391 846.09 469.359 844.559C467.086 841.191 467.987 837.242 472.061 832.713C480.408 822.629 487.38 814.14 492.978 807.246C498.37 800.047 501.304 793.168 501.781 786.609C502.357 779.538 499.857 771.868 494.279 763.601L378.081 591.367C373.95 585.244 368.91 581.737 362.963 580.847C357.015 579.957 350.566 580.965 343.615 583.871C336.763 586.264 329.761 589.426 322.611 593.358C319.648 594.91 316.375 596.004 312.792 596.638C309.309 596.759 306.638 595.442 304.779 592.686C302.92 589.93 302.699 586.961 304.116 583.777C305.327 580.288 307.513 577.254 310.676 574.676C324.749 562.513 336.622 550.719 346.293 539.297C356.065 527.361 363.617 512.467 368.951 494.614C369.051 494.101 369.407 493.638 370.019 493.225C370.425 492.506 370.935 491.94 371.547 491.527C373.385 490.288 375.226 489.714 377.071 489.807C379.222 489.693 380.71 490.248 381.537 491.473C383.816 496.173 386.406 501.332 389.305 506.95C392.51 512.362 396.489 518.589 401.24 525.631L543.466 736.446C548.217 743.488 553.467 747.967 559.215 749.882C565.063 751.285 572.182 750.939 580.572 748.845C589.062 746.238 599.902 742.491 613.093 737.606C615.65 736.772 618.107 736.452 620.465 736.644C622.616 736.53 624.414 737.544 625.86 739.688C628.339 743.362 627.435 746.645 623.147 749.536C615.185 754.906 606.862 760.073 598.18 765.037C590.011 770.1 581.841 775.164 573.672 780.228C565.809 785.085 558.049 790.095 550.393 795.258C542.736 800.421 535.03 805.841 527.274 811.517C519.518 817.193 511.608 822.972 503.546 828.855C495.997 834.837 488.24 840.513 480.278 845.883Z" fill="#0B1114"/>
<path d="M723.308 1140.73C716.733 1140.73 710.611 1140.17 704.942 1139.03C699.5 1137.9 694.512 1136.77 689.977 1135.63C686.576 1134.5 683.401 1133.59 680.454 1132.91C677.733 1132.23 675.465 1131.89 673.651 1131.89C671.384 1131.89 669.23 1132.35 667.189 1133.25C665.148 1133.93 663.221 1134.95 661.407 1136.31C659.367 1137.9 657.779 1138.69 656.646 1138.69C654.605 1138.69 653.018 1138.24 651.884 1137.33C650.977 1136.43 650.523 1135.41 650.523 1134.27C650.523 1132.23 651.09 1128.26 652.224 1122.37C653.585 1116.48 654.151 1109.11 653.925 1100.27L652.564 948.948C652.564 943.054 651.657 937.84 649.843 933.306C648.256 928.545 644.742 925.598 639.3 924.465C638.166 924.238 637.146 923.671 636.239 922.765C635.558 921.858 635.218 920.611 635.218 919.024C635.218 917.891 635.558 916.871 636.239 915.964C636.919 915.057 637.826 914.49 638.96 914.264C643.948 913.357 649.73 911.883 656.305 909.843C662.881 907.576 669.23 905.309 675.352 903.042C681.701 900.548 686.576 898.735 689.977 897.601C692.244 896.695 693.832 896.241 694.739 896.241C696.099 896.241 697.006 896.695 697.46 897.601C698.14 898.282 698.48 899.188 698.48 900.322C698.48 901.682 698.14 904.516 697.46 908.823C697.006 913.13 696.779 917.437 696.779 921.744V994.514C696.779 997.461 697.006 999.841 697.46 1001.65C697.913 1003.24 698.707 1004.04 699.84 1004.04C706.869 999.274 714.125 995.647 721.608 993.154C729.317 990.433 736.573 989.073 743.375 989.073C755.166 989.073 765.823 992.134 775.346 998.254C784.869 1004.38 792.352 1012.76 797.794 1023.42C803.462 1034.07 806.297 1046.09 806.297 1059.46C806.297 1075.33 802.782 1089.5 795.753 1101.97C788.724 1114.21 778.974 1123.73 766.503 1130.53C754.259 1137.33 739.861 1140.73 723.308 1140.73ZM729.43 1126.45C735.553 1126.45 740.768 1123.84 745.076 1118.63C749.384 1113.19 752.672 1106.05 754.939 1097.21C757.433 1088.37 758.68 1078.73 758.68 1068.3C758.68 1059.24 757.433 1050.05 754.939 1040.76C752.672 1031.47 748.931 1023.76 743.715 1017.64C738.727 1011.29 732.265 1008.12 724.329 1008.12C720.247 1008.12 715.486 1008.8 710.044 1010.16C704.602 1011.29 700.18 1013.22 696.779 1015.94V1088.37C696.779 1095.62 698.253 1102.19 701.201 1108.09C704.375 1113.98 708.457 1118.52 713.445 1121.69C718.433 1124.86 723.762 1126.45 729.43 1126.45Z" fill="#0B1114"/>
<path d="M849.761 758.46C843.721 753.023 838.135 746.255 833.002 738.155C827.869 730.055 824.191 722.272 821.969 714.804C819.774 707.858 819.912 703.013 822.384 700.268C824.609 697.798 828.028 695.657 832.641 693.847C837.529 692.283 842.458 691.502 847.428 691.503C852.398 691.504 855.981 692.493 858.177 694.47C860.922 696.941 862.775 699.852 863.736 703.201C864.696 706.551 865.423 710.435 865.916 714.855C866.271 721.636 867.176 728.911 868.629 736.681C870.605 744.423 875.298 751.63 882.711 758.303C892.319 766.952 903.466 772.514 916.151 774.987C929.358 777.434 942.648 776.476 956.021 772.114C969.669 767.999 981.684 760.178 992.066 748.65C1001.71 737.946 1009.07 726.184 1014.15 713.365C1019.51 700.793 1021.49 688.659 1020.09 676.964C1018.94 664.994 1013.42 654.561 1003.54 645.664C999.147 641.71 993.862 638.195 987.684 635.119C981.781 632.29 975.919 630.244 970.098 628.979C967.71 628.32 965.912 626.453 964.704 623.378C963.497 620.303 963.909 618.189 965.941 617.037C970.994 613.634 975.992 611.672 980.935 611.151C986.152 610.878 990.888 611.415 995.144 612.761C1001.51 614.519 1009.06 616.346 1017.8 618.242C1026.77 619.864 1036.11 620.813 1045.8 621.09C1055.74 621.092 1065.22 619.681 1074.22 616.855C1083.23 614.029 1090.95 609.049 1097.37 601.912C1106.77 591.482 1111.49 579.336 1111.55 565.472C1111.86 551.334 1106.66 539.446 1095.95 529.808C1086.07 520.911 1076.5 515.528 1067.24 513.659C1057.99 511.791 1049.34 511.459 1041.3 512.665C1033.25 513.871 1026.52 515.27 1021.11 516.861C1015.7 518.452 1012.31 518.63 1010.94 517.394C1009.57 516.158 1008.66 513.852 1008.22 510.475C1008.31 507.071 1009.34 504.271 1011.31 502.076C1014.03 499.057 1019.5 496.024 1027.71 492.979C1036.17 489.659 1046.27 487.822 1058.02 487.468C1070.05 487.36 1083 489.82 1096.86 494.847C1110.97 499.6 1125.31 508.525 1139.86 521.623C1149.46 530.273 1156.67 540.487 1161.47 552.265C1166.28 564.043 1168.07 575.848 1166.86 587.68C1165.92 599.759 1161.13 610.601 1152.48 620.208C1146.79 626.521 1138.84 632.037 1128.63 636.757C1118.93 641.449 1107.3 644.15 1093.74 644.861C1080.7 645.544 1066.06 643.304 1049.84 638.139C1048.76 637.672 1047.86 637.85 1047.12 638.674C1046.62 639.223 1046.92 639.991 1048.02 640.98C1060.65 652.348 1069.31 665.362 1074 680.023C1078.94 694.409 1079.97 709.001 1077.08 723.797C1074.47 738.84 1067.6 752.538 1056.48 764.889C1042.64 780.259 1026.86 791.154 1009.15 797.574C991.683 803.72 973.368 806.118 954.202 804.768C935.284 803.144 916.846 798.226 898.89 790.014C880.962 782.323 864.585 771.805 849.761 758.46Z" fill="#0B1114"/>
</svg>
