<svg width="334" height="312" viewBox="0 0 334 312" fill="none" xmlns="http://www.w3.org/2000/svg">
<g filter="url(#filter0_d_6_75)">
<mask id="path-1-outside-1_6_75" maskUnits="userSpaceOnUse" x="4" y="0" width="326" height="304" fill="#f0ebe0">
<rect fill="#0b1114
" x="4" width="326" height="304"/>
<path d="M326.207 292.674C327.244 292.674 327.762 294.228 327.762 297.337C327.762 300.446 327.244 302 326.207 302L301.337 301.223C296.155 300.705 288.383 300.446 278.021 300.446L229.057 301.223C221.803 301.741 211.959 302 199.523 302C197.969 302 197.192 300.446 197.192 297.337C197.192 294.228 197.969 292.674 199.523 292.674C209.368 292.674 216.363 292.155 220.508 291.119C225.171 289.565 227.503 286.974 227.503 283.347C227.503 280.238 224.135 273.244 217.399 262.363L156 169.876L104.705 243.71C100.56 249.927 96.9326 255.886 93.8238 261.585C91.2332 266.767 89.9378 271.43 89.9378 275.575C89.9378 286.974 105.482 292.674 136.57 292.674C138.124 292.674 138.902 294.228 138.902 297.337C138.902 300.446 138.124 302 136.57 302C122.58 302 112.218 301.741 105.482 301.223L58.8497 300.446L31.6477 301.223C26.4663 301.741 18.4352 302 7.5544 302C6.51813 302 6 300.446 6 297.337C6 294.228 6.51813 292.674 7.5544 292.674C20.5078 292.674 34.4974 288.269 49.5233 279.461C65.0674 270.135 79.057 256.663 91.4922 239.047L149.005 158.995L87.6062 66.5078C74.6529 46.8186 61.1814 32.829 47.1917 24.5388C33.2021 15.7306 20.2487 11.3264 8.33161 11.3264C7.29534 11.3264 6.7772 9.77201 6.7772 6.6632C6.7772 3.5544 7.29534 2 8.33161 2C19.2124 2 27.2435 2.25906 32.4249 2.77719L56.5181 3.55441L105.482 2.77719C112.736 2.25906 122.58 2 135.016 2C136.052 2 136.57 3.5544 136.57 6.6632C136.57 9.77201 136.052 11.3264 135.016 11.3264C125.171 11.3264 117.917 12.1036 113.254 13.658C109.109 14.6943 107.036 17.0259 107.036 20.6528C107.036 23.7617 110.404 30.7565 117.14 41.6373L173.098 126.352L217.399 60.2901C228.28 45.2642 233.72 34.3834 233.72 27.6477C233.72 21.9482 230.093 17.8031 222.839 15.2124C215.586 12.6218 203.15 11.3264 185.534 11.3264C184.497 11.3264 183.979 9.77201 183.979 6.6632C183.979 3.5544 184.497 2 185.534 2C199.523 2 210.145 2.25906 217.399 2.77719L264.031 3.55441L291.233 2.77719C296.415 2.25906 304.446 2 315.326 2C316.363 2 316.881 3.5544 316.881 6.6632C316.881 9.77201 316.363 11.3264 315.326 11.3264C301.855 11.3264 287.865 15.7306 273.358 24.5388C258.85 32.829 244.86 46.3005 231.389 64.9534L179.316 135.679L246.933 237.492C259.886 257.181 273.358 271.43 287.347 280.238C301.337 288.528 314.29 292.674 326.207 292.674Z"/>
<path d="M86.1189 192.149C85.5112 192.558 84.8176 192.732 84.0379 192.668C83.3596 192.536 82.8496 192.217 82.5081 191.711C81.7566 190.597 82.0545 189.291 83.4017 187.792C86.162 184.457 88.4677 181.649 90.3189 179.369C92.1018 176.988 93.072 174.713 93.2297 172.543C93.4203 170.204 92.5934 167.668 90.749 164.933L52.3235 107.965C50.9573 105.939 49.2908 104.78 47.324 104.485C45.3573 104.191 43.2245 104.524 40.9257 105.485C38.6599 106.277 36.3446 107.323 33.9799 108.623C33.0001 109.137 31.9178 109.498 30.7331 109.708C29.5813 109.748 28.698 109.313 28.0832 108.401C27.4684 107.49 27.3953 106.507 27.864 105.454C28.2643 104.3 28.9874 103.297 30.0331 102.444C34.6871 98.4209 38.6132 94.5202 41.8116 90.742C45.0429 86.7942 47.5405 81.8678 49.3043 75.9627C49.3373 75.7932 49.455 75.64 49.6576 75.5034C49.7918 75.2655 49.9602 75.0783 50.1628 74.9416C50.7704 74.5318 51.3793 74.3421 51.9893 74.3727C52.7006 74.335 53.1929 74.5187 53.4662 74.9238C54.22 76.4783 55.0763 78.1847 56.035 80.043C57.095 81.833 58.4106 83.8927 59.9818 86.2221L107.015 155.951C108.586 158.28 110.322 159.762 112.223 160.395C114.156 160.859 116.511 160.745 119.285 160.052C122.093 159.19 125.678 157.951 130.04 156.335C130.885 156.059 131.698 155.953 132.477 156.017C133.189 155.979 133.783 156.315 134.262 157.023C135.081 158.239 134.782 159.325 133.364 160.281C130.731 162.057 127.979 163.766 125.108 165.408C122.407 167.083 119.705 168.758 117.004 170.433C114.403 172.039 111.837 173.696 109.305 175.404C106.773 177.112 104.225 178.904 101.66 180.782C99.0952 182.659 96.4797 184.571 93.8135 186.516C91.3169 188.495 88.7521 190.372 86.1189 192.149Z"/>
<path d="M166.487 289.673C164.312 289.673 162.288 289.486 160.413 289.111C158.614 288.736 156.964 288.361 155.464 287.986C154.34 287.611 153.29 287.312 152.315 287.087C151.415 286.862 150.666 286.749 150.066 286.749C149.316 286.749 148.604 286.899 147.929 287.199C147.254 287.424 146.617 287.761 146.017 288.211C145.342 288.736 144.817 288.999 144.442 288.999C143.767 288.999 143.242 288.849 142.867 288.549C142.567 288.249 142.418 287.911 142.418 287.536C142.418 286.862 142.605 285.549 142.98 283.6C143.43 281.65 143.617 279.213 143.542 276.289L143.092 226.239C143.092 224.289 142.792 222.564 142.193 221.065C141.668 219.49 140.505 218.515 138.706 218.141C138.331 218.066 137.994 217.878 137.694 217.578C137.469 217.278 137.356 216.866 137.356 216.341C137.356 215.966 137.469 215.629 137.694 215.329C137.919 215.029 138.219 214.841 138.593 214.766C140.243 214.466 142.155 213.979 144.33 213.304C146.504 212.554 148.604 211.805 150.628 211.055C152.728 210.23 154.34 209.63 155.464 209.255C156.214 208.955 156.739 208.805 157.039 208.805C157.489 208.805 157.789 208.955 157.939 209.255C158.164 209.48 158.276 209.78 158.276 210.155C158.276 210.605 158.164 211.542 157.939 212.967C157.789 214.391 157.714 215.816 157.714 217.241V241.31C157.714 242.285 157.789 243.072 157.939 243.672C158.089 244.197 158.351 244.459 158.726 244.459C161.051 242.885 163.45 241.685 165.924 240.86C168.474 239.96 170.873 239.51 173.123 239.51C177.022 239.51 180.546 240.523 183.695 242.547C186.844 244.572 189.319 247.346 191.118 250.87C192.993 254.394 193.93 258.368 193.93 262.792C193.93 268.041 192.768 272.727 190.444 276.852C188.119 280.901 184.895 284.05 180.771 286.299C176.722 288.549 171.96 289.673 166.487 289.673ZM168.511 284.95C170.536 284.95 172.26 284.087 173.685 282.363C175.11 280.563 176.197 278.201 176.947 275.277C177.772 272.353 178.184 269.166 178.184 265.717C178.184 262.717 177.772 259.681 176.947 256.606C176.197 253.532 174.96 250.983 173.235 248.958C171.586 246.859 169.449 245.809 166.824 245.809C165.475 245.809 163.9 246.034 162.1 246.484C160.301 246.859 158.839 247.496 157.714 248.396V272.353C157.714 274.752 158.201 276.926 159.176 278.876C160.226 280.826 161.575 282.325 163.225 283.375C164.875 284.425 166.637 284.95 168.511 284.95Z"/>
<path d="M208.303 163.233C206.306 161.434 204.459 159.196 202.761 156.517C201.064 153.838 199.848 151.263 199.113 148.793C198.387 146.496 198.433 144.893 199.25 143.985C199.986 143.168 201.116 142.46 202.642 141.861C204.258 141.344 205.888 141.085 207.532 141.086C209.175 141.086 210.36 141.413 211.087 142.067C211.994 142.885 212.607 143.847 212.925 144.955C213.242 146.063 213.483 147.348 213.646 148.81C213.763 151.053 214.062 153.459 214.543 156.029C215.196 158.59 216.748 160.974 219.2 163.181C222.377 166.042 226.063 167.881 230.258 168.699C234.625 169.508 239.02 169.192 243.443 167.749C247.956 166.388 251.929 163.801 255.362 159.988C258.55 156.447 260.985 152.557 262.665 148.317C264.437 144.159 265.092 140.145 264.629 136.277C264.249 132.318 262.425 128.867 259.156 125.924C257.704 124.616 255.956 123.454 253.913 122.436C251.961 121.501 250.023 120.824 248.098 120.406C247.308 120.187 246.713 119.57 246.314 118.553C245.915 117.536 246.051 116.837 246.723 116.455C248.394 115.33 250.047 114.681 251.681 114.509C253.407 114.418 254.973 114.596 256.38 115.041C258.487 115.623 260.984 116.227 263.871 116.854C266.84 117.391 269.927 117.705 273.133 117.796C276.42 117.797 279.552 117.33 282.531 116.395C285.509 115.461 288.061 113.813 290.187 111.453C293.293 108.003 294.856 103.985 294.875 99.3998C294.976 94.7236 293.256 90.7914 289.715 87.6035C286.447 84.6608 283.283 82.8803 280.223 82.2622C277.163 81.6441 274.303 81.5345 271.642 81.9334C268.982 82.3323 266.757 82.7949 264.968 83.3212C263.179 83.8474 262.058 83.9062 261.604 83.4975C261.15 83.0888 260.85 82.326 260.705 81.2091C260.733 80.0831 261.074 79.157 261.728 78.4308C262.627 77.4321 264.434 76.4292 267.149 75.4219C269.946 74.3238 273.288 73.7162 277.174 73.599C281.151 73.5636 285.432 74.3772 290.018 76.0399C294.684 77.6118 299.424 80.5639 304.235 84.8963C307.413 87.7573 309.795 91.1356 311.384 95.0314C312.972 98.9272 313.566 102.832 313.165 106.745C312.856 110.741 311.27 114.327 308.409 117.504C306.529 119.592 303.9 121.417 300.522 122.978C297.316 124.53 293.471 125.423 288.985 125.659C284.672 125.885 279.832 125.143 274.466 123.435C274.112 123.281 273.812 123.34 273.567 123.612C273.404 123.794 273.504 124.048 273.867 124.375C278.043 128.135 280.907 132.44 282.458 137.289C284.092 142.047 284.431 146.873 283.476 151.767C282.613 156.743 280.342 161.274 276.663 165.359C272.086 170.443 266.868 174.047 261.011 176.17C255.236 178.203 249.179 178.996 242.841 178.55C236.585 178.012 230.488 176.386 224.55 173.669C218.621 171.126 213.206 167.647 208.303 163.233Z"/>
</mask>
<path d="M326.207 292.674C327.244 292.674 327.762 294.228 327.762 297.337C327.762 300.446 327.244 302 326.207 302L301.337 301.223C296.155 300.705 288.383 300.446 278.021 300.446L229.057 301.223C221.803 301.741 211.959 302 199.523 302C197.969 302 197.192 300.446 197.192 297.337C197.192 294.228 197.969 292.674 199.523 292.674C209.368 292.674 216.363 292.155 220.508 291.119C225.171 289.565 227.503 286.974 227.503 283.347C227.503 280.238 224.135 273.244 217.399 262.363L156 169.876L104.705 243.71C100.56 249.927 96.9326 255.886 93.8238 261.585C91.2332 266.767 89.9378 271.43 89.9378 275.575C89.9378 286.974 105.482 292.674 136.57 292.674C138.124 292.674 138.902 294.228 138.902 297.337C138.902 300.446 138.124 302 136.57 302C122.58 302 112.218 301.741 105.482 301.223L58.8497 300.446L31.6477 301.223C26.4663 301.741 18.4352 302 7.5544 302C6.51813 302 6 300.446 6 297.337C6 294.228 6.51813 292.674 7.5544 292.674C20.5078 292.674 34.4974 288.269 49.5233 279.461C65.0674 270.135 79.057 256.663 91.4922 239.047L149.005 158.995L87.6062 66.5078C74.6529 46.8186 61.1814 32.829 47.1917 24.5388C33.2021 15.7306 20.2487 11.3264 8.33161 11.3264C7.29534 11.3264 6.7772 9.77201 6.7772 6.6632C6.7772 3.5544 7.29534 2 8.33161 2C19.2124 2 27.2435 2.25906 32.4249 2.77719L56.5181 3.55441L105.482 2.77719C112.736 2.25906 122.58 2 135.016 2C136.052 2 136.57 3.5544 136.57 6.6632C136.57 9.77201 136.052 11.3264 135.016 11.3264C125.171 11.3264 117.917 12.1036 113.254 13.658C109.109 14.6943 107.036 17.0259 107.036 20.6528C107.036 23.7617 110.404 30.7565 117.14 41.6373L173.098 126.352L217.399 60.2901C228.28 45.2642 233.72 34.3834 233.72 27.6477C233.72 21.9482 230.093 17.8031 222.839 15.2124C215.586 12.6218 203.15 11.3264 185.534 11.3264C184.497 11.3264 183.979 9.77201 183.979 6.6632C183.979 3.5544 184.497 2 185.534 2C199.523 2 210.145 2.25906 217.399 2.77719L264.031 3.55441L291.233 2.77719C296.415 2.25906 304.446 2 315.326 2C316.363 2 316.881 3.5544 316.881 6.6632C316.881 9.77201 316.363 11.3264 315.326 11.3264C301.855 11.3264 287.865 15.7306 273.358 24.5388C258.85 32.829 244.86 46.3005 231.389 64.9534L179.316 135.679L246.933 237.492C259.886 257.181 273.358 271.43 287.347 280.238C301.337 288.528 314.29 292.674 326.207 292.674Z" fill="#f0ebe0"/>
<path d="M86.1189 192.149C85.5112 192.558 84.8176 192.732 84.0379 192.668C83.3596 192.536 82.8496 192.217 82.5081 191.711C81.7566 190.597 82.0545 189.291 83.4017 187.792C86.162 184.457 88.4677 181.649 90.3189 179.369C92.1018 176.988 93.072 174.713 93.2297 172.543C93.4203 170.204 92.5934 167.668 90.749 164.933L52.3235 107.965C50.9573 105.939 49.2908 104.78 47.324 104.485C45.3573 104.191 43.2245 104.524 40.9257 105.485C38.6599 106.277 36.3446 107.323 33.9799 108.623C33.0001 109.137 31.9178 109.498 30.7331 109.708C29.5813 109.748 28.698 109.313 28.0832 108.401C27.4684 107.49 27.3953 106.507 27.864 105.454C28.2643 104.3 28.9874 103.297 30.0331 102.444C34.6871 98.4209 38.6132 94.5202 41.8116 90.742C45.0429 86.7942 47.5405 81.8678 49.3043 75.9627C49.3373 75.7932 49.455 75.64 49.6576 75.5034C49.7918 75.2655 49.9602 75.0783 50.1628 74.9416C50.7704 74.5318 51.3793 74.3421 51.9893 74.3727C52.7006 74.335 53.1929 74.5187 53.4662 74.9238C54.22 76.4783 55.0763 78.1847 56.035 80.043C57.095 81.833 58.4106 83.8927 59.9818 86.2221L107.015 155.951C108.586 158.28 110.322 159.762 112.223 160.395C114.156 160.859 116.511 160.745 119.285 160.052C122.093 159.19 125.678 157.951 130.04 156.335C130.885 156.059 131.698 155.953 132.477 156.017C133.189 155.979 133.783 156.315 134.262 157.023C135.081 158.239 134.782 159.325 133.364 160.281C130.731 162.057 127.979 163.766 125.108 165.408C122.407 167.083 119.705 168.758 117.004 170.433C114.403 172.039 111.837 173.696 109.305 175.404C106.773 177.112 104.225 178.904 101.66 180.782C99.0952 182.659 96.4797 184.571 93.8135 186.516C91.3169 188.495 88.7521 190.372 86.1189 192.149Z" fill="#f0ebe0"/>
<path d="M166.487 289.673C164.312 289.673 162.288 289.486 160.413 289.111C158.614 288.736 156.964 288.361 155.464 287.986C154.34 287.611 153.29 287.312 152.315 287.087C151.415 286.862 150.666 286.749 150.066 286.749C149.316 286.749 148.604 286.899 147.929 287.199C147.254 287.424 146.617 287.761 146.017 288.211C145.342 288.736 144.817 288.999 144.442 288.999C143.767 288.999 143.242 288.849 142.867 288.549C142.567 288.249 142.418 287.911 142.418 287.536C142.418 286.862 142.605 285.549 142.98 283.6C143.43 281.65 143.617 279.213 143.542 276.289L143.092 226.239C143.092 224.289 142.792 222.564 142.193 221.065C141.668 219.49 140.505 218.515 138.706 218.141C138.331 218.066 137.994 217.878 137.694 217.578C137.469 217.278 137.356 216.866 137.356 216.341C137.356 215.966 137.469 215.629 137.694 215.329C137.919 215.029 138.219 214.841 138.593 214.766C140.243 214.466 142.155 213.979 144.33 213.304C146.504 212.554 148.604 211.805 150.628 211.055C152.728 210.23 154.34 209.63 155.464 209.255C156.214 208.955 156.739 208.805 157.039 208.805C157.489 208.805 157.789 208.955 157.939 209.255C158.164 209.48 158.276 209.78 158.276 210.155C158.276 210.605 158.164 211.542 157.939 212.967C157.789 214.391 157.714 215.816 157.714 217.241V241.31C157.714 242.285 157.789 243.072 157.939 243.672C158.089 244.197 158.351 244.459 158.726 244.459C161.051 242.885 163.45 241.685 165.924 240.86C168.474 239.96 170.873 239.51 173.123 239.51C177.022 239.51 180.546 240.523 183.695 242.547C186.844 244.572 189.319 247.346 191.118 250.87C192.993 254.394 193.93 258.368 193.93 262.792C193.93 268.041 192.768 272.727 190.444 276.852C188.119 280.901 184.895 284.05 180.771 286.299C176.722 288.549 171.96 289.673 166.487 289.673ZM168.511 284.95C170.536 284.95 172.26 284.087 173.685 282.363C175.11 280.563 176.197 278.201 176.947 275.277C177.772 272.353 178.184 269.166 178.184 265.717C178.184 262.717 177.772 259.681 176.947 256.606C176.197 253.532 174.96 250.983 173.235 248.958C171.586 246.859 169.449 245.809 166.824 245.809C165.475 245.809 163.9 246.034 162.1 246.484C160.301 246.859 158.839 247.496 157.714 248.396V272.353C157.714 274.752 158.201 276.926 159.176 278.876C160.226 280.826 161.575 282.325 163.225 283.375C164.875 284.425 166.637 284.95 168.511 284.95Z" fill="#f0ebe0"/>
<path d="M208.303 163.233C206.306 161.434 204.459 159.196 202.761 156.517C201.064 153.838 199.848 151.263 199.113 148.793C198.387 146.496 198.433 144.893 199.25 143.985C199.986 143.168 201.116 142.46 202.642 141.861C204.258 141.344 205.888 141.085 207.532 141.086C209.175 141.086 210.36 141.413 211.087 142.067C211.994 142.885 212.607 143.847 212.925 144.955C213.242 146.063 213.483 147.348 213.646 148.81C213.763 151.053 214.062 153.459 214.543 156.029C215.196 158.59 216.748 160.974 219.2 163.181C222.377 166.042 226.063 167.881 230.258 168.699C234.625 169.508 239.02 169.192 243.443 167.749C247.956 166.388 251.929 163.801 255.362 159.988C258.55 156.447 260.985 152.557 262.665 148.317C264.437 144.159 265.092 140.145 264.629 136.277C264.249 132.318 262.425 128.867 259.156 125.924C257.704 124.616 255.956 123.454 253.913 122.436C251.961 121.501 250.023 120.824 248.098 120.406C247.308 120.187 246.713 119.57 246.314 118.553C245.915 117.536 246.051 116.837 246.723 116.455C248.394 115.33 250.047 114.681 251.681 114.509C253.407 114.418 254.973 114.596 256.38 115.041C258.487 115.623 260.984 116.227 263.871 116.854C266.84 117.391 269.927 117.705 273.133 117.796C276.42 117.797 279.552 117.33 282.531 116.395C285.509 115.461 288.061 113.813 290.187 111.453C293.293 108.003 294.856 103.985 294.875 99.3998C294.976 94.7236 293.256 90.7914 289.715 87.6035C286.447 84.6608 283.283 82.8803 280.223 82.2622C277.163 81.6441 274.303 81.5345 271.642 81.9334C268.982 82.3323 266.757 82.7949 264.968 83.3212C263.179 83.8474 262.058 83.9062 261.604 83.4975C261.15 83.0888 260.85 82.326 260.705 81.2091C260.733 80.0831 261.074 79.157 261.728 78.4308C262.627 77.4321 264.434 76.4292 267.149 75.4219C269.946 74.3238 273.288 73.7162 277.174 73.599C281.151 73.5636 285.432 74.3772 290.018 76.0399C294.684 77.6118 299.424 80.5639 304.235 84.8963C307.413 87.7573 309.795 91.1356 311.384 95.0314C312.972 98.9272 313.566 102.832 313.165 106.745C312.856 110.741 311.27 114.327 308.409 117.504C306.529 119.592 303.9 121.417 300.522 122.978C297.316 124.53 293.471 125.423 288.985 125.659C284.672 125.885 279.832 125.143 274.466 123.435C274.112 123.281 273.812 123.34 273.567 123.612C273.404 123.794 273.504 124.048 273.867 124.375C278.043 128.135 280.907 132.44 282.458 137.289C284.092 142.047 284.431 146.873 283.476 151.767C282.613 156.743 280.342 161.274 276.663 165.359C272.086 170.443 266.868 174.047 261.011 176.17C255.236 178.203 249.179 178.996 242.841 178.55C236.585 178.012 230.488 176.386 224.55 173.669C218.621 171.126 213.206 167.647 208.303 163.233Z" fill="#f0ebe0"/>
<path d="M326.207 292.674C327.244 292.674 327.762 294.228 327.762 297.337C327.762 300.446 327.244 302 326.207 302L301.337 301.223C296.155 300.705 288.383 300.446 278.021 300.446L229.057 301.223C221.803 301.741 211.959 302 199.523 302C197.969 302 197.192 300.446 197.192 297.337C197.192 294.228 197.969 292.674 199.523 292.674C209.368 292.674 216.363 292.155 220.508 291.119C225.171 289.565 227.503 286.974 227.503 283.347C227.503 280.238 224.135 273.244 217.399 262.363L156 169.876L104.705 243.71C100.56 249.927 96.9326 255.886 93.8238 261.585C91.2332 266.767 89.9378 271.43 89.9378 275.575C89.9378 286.974 105.482 292.674 136.57 292.674C138.124 292.674 138.902 294.228 138.902 297.337C138.902 300.446 138.124 302 136.57 302C122.58 302 112.218 301.741 105.482 301.223L58.8497 300.446L31.6477 301.223C26.4663 301.741 18.4352 302 7.5544 302C6.51813 302 6 300.446 6 297.337C6 294.228 6.51813 292.674 7.5544 292.674C20.5078 292.674 34.4974 288.269 49.5233 279.461C65.0674 270.135 79.057 256.663 91.4922 239.047L149.005 158.995L87.6062 66.5078C74.6529 46.8186 61.1814 32.829 47.1917 24.5388C33.2021 15.7306 20.2487 11.3264 8.33161 11.3264C7.29534 11.3264 6.7772 9.77201 6.7772 6.6632C6.7772 3.5544 7.29534 2 8.33161 2C19.2124 2 27.2435 2.25906 32.4249 2.77719L56.5181 3.55441L105.482 2.77719C112.736 2.25906 122.58 2 135.016 2C136.052 2 136.57 3.5544 136.57 6.6632C136.57 9.77201 136.052 11.3264 135.016 11.3264C125.171 11.3264 117.917 12.1036 113.254 13.658C109.109 14.6943 107.036 17.0259 107.036 20.6528C107.036 23.7617 110.404 30.7565 117.14 41.6373L173.098 126.352L217.399 60.2901C228.28 45.2642 233.72 34.3834 233.72 27.6477C233.72 21.9482 230.093 17.8031 222.839 15.2124C215.586 12.6218 203.15 11.3264 185.534 11.3264C184.497 11.3264 183.979 9.77201 183.979 6.6632C183.979 3.5544 184.497 2 185.534 2C199.523 2 210.145 2.25906 217.399 2.77719L264.031 3.55441L291.233 2.77719C296.415 2.25906 304.446 2 315.326 2C316.363 2 316.881 3.5544 316.881 6.6632C316.881 9.77201 316.363 11.3264 315.326 11.3264C301.855 11.3264 287.865 15.7306 273.358 24.5388C258.85 32.829 244.86 46.3005 231.389 64.9534L179.316 135.679L246.933 237.492C259.886 257.181 273.358 271.43 287.347 280.238C301.337 288.528 314.29 292.674 326.207 292.674Z" stroke="#F0EBE0" stroke-width="4" mask="url(#path-1-outside-1_6_75)"/>
<path d="M86.1189 192.149C85.5112 192.558 84.8176 192.732 84.0379 192.668C83.3596 192.536 82.8496 192.217 82.5081 191.711C81.7566 190.597 82.0545 189.291 83.4017 187.792C86.162 184.457 88.4677 181.649 90.3189 179.369C92.1018 176.988 93.072 174.713 93.2297 172.543C93.4203 170.204 92.5934 167.668 90.749 164.933L52.3235 107.965C50.9573 105.939 49.2908 104.78 47.324 104.485C45.3573 104.191 43.2245 104.524 40.9257 105.485C38.6599 106.277 36.3446 107.323 33.9799 108.623C33.0001 109.137 31.9178 109.498 30.7331 109.708C29.5813 109.748 28.698 109.313 28.0832 108.401C27.4684 107.49 27.3953 106.507 27.864 105.454C28.2643 104.3 28.9874 103.297 30.0331 102.444C34.6871 98.4209 38.6132 94.5202 41.8116 90.742C45.0429 86.7942 47.5405 81.8678 49.3043 75.9627C49.3373 75.7932 49.455 75.64 49.6576 75.5034C49.7918 75.2655 49.9602 75.0783 50.1628 74.9416C50.7704 74.5318 51.3793 74.3421 51.9893 74.3727C52.7006 74.335 53.1929 74.5187 53.4662 74.9238C54.22 76.4783 55.0763 78.1847 56.035 80.043C57.095 81.833 58.4106 83.8927 59.9818 86.2221L107.015 155.951C108.586 158.28 110.322 159.762 112.223 160.395C114.156 160.859 116.511 160.745 119.285 160.052C122.093 159.19 125.678 157.951 130.04 156.335C130.885 156.059 131.698 155.953 132.477 156.017C133.189 155.979 133.783 156.315 134.262 157.023C135.081 158.239 134.782 159.325 133.364 160.281C130.731 162.057 127.979 163.766 125.108 165.408C122.407 167.083 119.705 168.758 117.004 170.433C114.403 172.039 111.837 173.696 109.305 175.404C106.773 177.112 104.225 178.904 101.66 180.782C99.0952 182.659 96.4797 184.571 93.8135 186.516C91.3169 188.495 88.7521 190.372 86.1189 192.149Z" stroke="#F0EBE0" stroke-width="4" mask="url(#path-1-outside-1_6_75)"/>
<path d="M166.487 289.673C164.312 289.673 162.288 289.486 160.413 289.111C158.614 288.736 156.964 288.361 155.464 287.986C154.34 287.611 153.29 287.312 152.315 287.087C151.415 286.862 150.666 286.749 150.066 286.749C149.316 286.749 148.604 286.899 147.929 287.199C147.254 287.424 146.617 287.761 146.017 288.211C145.342 288.736 144.817 288.999 144.442 288.999C143.767 288.999 143.242 288.849 142.867 288.549C142.567 288.249 142.418 287.911 142.418 287.536C142.418 286.862 142.605 285.549 142.98 283.6C143.43 281.65 143.617 279.213 143.542 276.289L143.092 226.239C143.092 224.289 142.792 222.564 142.193 221.065C141.668 219.49 140.505 218.515 138.706 218.141C138.331 218.066 137.994 217.878 137.694 217.578C137.469 217.278 137.356 216.866 137.356 216.341C137.356 215.966 137.469 215.629 137.694 215.329C137.919 215.029 138.219 214.841 138.593 214.766C140.243 214.466 142.155 213.979 144.33 213.304C146.504 212.554 148.604 211.805 150.628 211.055C152.728 210.23 154.34 209.63 155.464 209.255C156.214 208.955 156.739 208.805 157.039 208.805C157.489 208.805 157.789 208.955 157.939 209.255C158.164 209.48 158.276 209.78 158.276 210.155C158.276 210.605 158.164 211.542 157.939 212.967C157.789 214.391 157.714 215.816 157.714 217.241V241.31C157.714 242.285 157.789 243.072 157.939 243.672C158.089 244.197 158.351 244.459 158.726 244.459C161.051 242.885 163.45 241.685 165.924 240.86C168.474 239.96 170.873 239.51 173.123 239.51C177.022 239.51 180.546 240.523 183.695 242.547C186.844 244.572 189.319 247.346 191.118 250.87C192.993 254.394 193.93 258.368 193.93 262.792C193.93 268.041 192.768 272.727 190.444 276.852C188.119 280.901 184.895 284.05 180.771 286.299C176.722 288.549 171.96 289.673 166.487 289.673ZM168.511 284.95C170.536 284.95 172.26 284.087 173.685 282.363C175.11 280.563 176.197 278.201 176.947 275.277C177.772 272.353 178.184 269.166 178.184 265.717C178.184 262.717 177.772 259.681 176.947 256.606C176.197 253.532 174.96 250.983 173.235 248.958C171.586 246.859 169.449 245.809 166.824 245.809C165.475 245.809 163.9 246.034 162.1 246.484C160.301 246.859 158.839 247.496 157.714 248.396V272.353C157.714 274.752 158.201 276.926 159.176 278.876C160.226 280.826 161.575 282.325 163.225 283.375C164.875 284.425 166.637 284.95 168.511 284.95Z" stroke="#F0EBE0" stroke-width="4" mask="url(#path-1-outside-1_6_75)"/>
<path d="M208.303 163.233C206.306 161.434 204.459 159.196 202.761 156.517C201.064 153.838 199.848 151.263 199.113 148.793C198.387 146.496 198.433 144.893 199.25 143.985C199.986 143.168 201.116 142.46 202.642 141.861C204.258 141.344 205.888 141.085 207.532 141.086C209.175 141.086 210.36 141.413 211.087 142.067C211.994 142.885 212.607 143.847 212.925 144.955C213.242 146.063 213.483 147.348 213.646 148.81C213.763 151.053 214.062 153.459 214.543 156.029C215.196 158.59 216.748 160.974 219.2 163.181C222.377 166.042 226.063 167.881 230.258 168.699C234.625 169.508 239.02 169.192 243.443 167.749C247.956 166.388 251.929 163.801 255.362 159.988C258.55 156.447 260.985 152.557 262.665 148.317C264.437 144.159 265.092 140.145 264.629 136.277C264.249 132.318 262.425 128.867 259.156 125.924C257.704 124.616 255.956 123.454 253.913 122.436C251.961 121.501 250.023 120.824 248.098 120.406C247.308 120.187 246.713 119.57 246.314 118.553C245.915 117.536 246.051 116.837 246.723 116.455C248.394 115.33 250.047 114.681 251.681 114.509C253.407 114.418 254.973 114.596 256.38 115.041C258.487 115.623 260.984 116.227 263.871 116.854C266.84 117.391 269.927 117.705 273.133 117.796C276.42 117.797 279.552 117.33 282.531 116.395C285.509 115.461 288.061 113.813 290.187 111.453C293.293 108.003 294.856 103.985 294.875 99.3998C294.976 94.7236 293.256 90.7914 289.715 87.6035C286.447 84.6608 283.283 82.8803 280.223 82.2622C277.163 81.6441 274.303 81.5345 271.642 81.9334C268.982 82.3323 266.757 82.7949 264.968 83.3212C263.179 83.8474 262.058 83.9062 261.604 83.4975C261.15 83.0888 260.85 82.326 260.705 81.2091C260.733 80.0831 261.074 79.157 261.728 78.4308C262.627 77.4321 264.434 76.4292 267.149 75.4219C269.946 74.3238 273.288 73.7162 277.174 73.599C281.151 73.5636 285.432 74.3772 290.018 76.0399C294.684 77.6118 299.424 80.5639 304.235 84.8963C307.413 87.7573 309.795 91.1356 311.384 95.0314C312.972 98.9272 313.566 102.832 313.165 106.745C312.856 110.741 311.27 114.327 308.409 117.504C306.529 119.592 303.9 121.417 300.522 122.978C297.316 124.53 293.471 125.423 288.985 125.659C284.672 125.885 279.832 125.143 274.466 123.435C274.112 123.281 273.812 123.34 273.567 123.612C273.404 123.794 273.504 124.048 273.867 124.375C278.043 128.135 280.907 132.44 282.458 137.289C284.092 142.047 284.431 146.873 283.476 151.767C282.613 156.743 280.342 161.274 276.663 165.359C272.086 170.443 266.868 174.047 261.011 176.17C255.236 178.203 249.179 178.996 242.841 178.55C236.585 178.012 230.488 176.386 224.55 173.669C218.621 171.126 213.206 167.647 208.303 163.233Z" stroke="#F0EBE0" stroke-width="4" mask="url(#path-1-outside-1_6_75)"/>
</g>
<defs>
<filter id="filter0_d_6_75" x="0" y="0" width="333.762" height="312" filterUnits="userSpaceOnUse" color-interpolation-filters="sRGB">
<feFlood flood-opacity="0" result="BackgroundImageFix"/>
<feColorMatrix in="SourceAlpha" type="matrix" values="0 0 0 0 0 0 0 0 0 0 0 0 0 0 0 0 0 0 127 0" result="hardAlpha"/>
<feOffset dy="4"/>
<feGaussianBlur stdDeviation="2"/>
<feComposite in2="hardAlpha" operator="out"/>
<feColorMatrix type="matrix" values="0 0 0 0 0 0 0 0 0 0 0 0 0 0 0 0 0 0 0.25 0"/>
<feBlend mode="normal" in2="BackgroundImageFix" result="effect1_dropShadow_6_75"/>
<feBlend mode="normal" in="SourceGraphic" in2="effect1_dropShadow_6_75" result="shape"/>
</filter>
</defs>
</svg>
