<svg width="973" height="907" viewBox="0 0 973 907" fill="none" xmlns="http://www.w3.org/2000/svg">
<path d="M968.299 878.803C971.433 878.803 973 883.503 973 892.902C973 902.3 971.433 907 968.299 907L893.092 904.65C877.423 903.084 853.921 902.301 822.585 902.301L674.519 904.65C652.584 906.217 622.814 907 585.21 907C580.51 907 578.159 902.3 578.159 892.902C578.159 883.503 580.51 878.803 585.21 878.803C614.98 878.803 636.132 877.237 648.667 874.104C662.768 869.404 669.819 861.572 669.819 850.606C669.819 841.207 659.634 820.06 639.266 787.163L453.597 507.544L298.481 730.769C285.946 749.567 274.978 767.582 265.577 784.813C257.743 800.478 253.826 814.577 253.826 827.109C253.826 861.572 300.831 878.803 394.841 878.803C399.541 878.803 401.891 883.503 401.891 892.902C401.891 902.3 399.541 907 394.841 907C352.536 907 321.2 906.217 300.831 904.65L159.816 902.301L77.558 904.65C61.8897 906.217 37.6039 907 4.70048 907C1.56683 907 0 902.3 0 892.902C0 883.503 1.56683 878.803 4.70048 878.803C43.8712 878.803 86.1755 865.488 131.614 838.858C178.618 810.661 220.923 769.932 258.527 716.671L432.444 474.648L246.775 195.028C207.605 135.502 166.867 93.2064 124.563 68.1424C82.2585 41.5121 43.0878 28.1969 7.05073 28.1969C3.91707 28.1969 2.35024 23.4974 2.35024 14.0984C2.35024 4.69947 3.91707 0 7.05073 0C39.9541 0 64.2399 0.783237 79.9082 2.34971L152.766 4.69949L300.831 2.34971C322.766 0.783237 352.536 0 390.14 0C393.274 0 394.841 4.69947 394.841 14.0984C394.841 23.4974 393.274 28.1969 390.14 28.1969C360.37 28.1969 338.435 30.5466 324.333 35.2461C311.799 38.3791 305.531 45.4283 305.531 56.3938C305.531 65.7927 315.716 86.9404 336.085 119.837L505.302 375.959L639.266 176.231C672.169 130.802 688.621 97.9059 688.621 77.5414C688.621 60.31 677.653 47.778 655.717 39.9456C633.782 32.1131 596.178 28.1969 542.906 28.1969C539.772 28.1969 538.205 23.4974 538.205 14.0984C538.205 4.69947 539.772 0 542.906 0C585.21 0 617.33 0.783237 639.266 2.34971L780.28 4.69949L862.539 2.34971C878.207 0.783237 902.493 0 935.396 0C938.53 0 940.097 4.69947 940.097 14.0984C940.097 23.4974 938.53 28.1969 935.396 28.1969C894.659 28.1969 852.354 41.5121 808.483 68.1424C764.612 93.2064 722.308 133.935 681.57 190.329L524.104 404.155L728.575 711.971C767.746 771.498 808.483 814.577 850.787 841.207C893.092 866.271 932.262 878.803 968.299 878.803Z" fill="#0B1114"/>
<path d="M242.278 574.883C240.44 576.122 238.342 576.645 235.985 576.453C233.934 576.055 232.391 575.09 231.359 573.559C229.086 570.191 229.987 566.242 234.061 561.713C242.408 551.629 249.38 543.14 254.978 536.246C260.37 529.047 263.304 522.168 263.781 515.609C264.357 508.538 261.857 500.868 256.279 492.601L140.081 320.367C135.95 314.244 130.91 310.737 124.963 309.847C119.015 308.957 112.566 309.965 105.615 312.871C98.7627 315.264 91.7614 318.426 84.6106 322.358C81.6477 323.91 78.3749 325.004 74.7923 325.638C71.3094 325.759 68.6383 324.442 66.7791 321.686C64.92 318.93 64.699 315.961 66.1162 312.777C67.3268 309.288 69.5133 306.254 72.6755 303.676C86.749 291.513 98.6216 279.719 108.293 268.297C118.065 256.361 125.617 241.467 130.951 223.614C131.051 223.101 131.407 222.638 132.019 222.225C132.425 221.506 132.935 220.94 133.547 220.527C135.385 219.288 137.226 218.714 139.071 218.807C141.222 218.693 142.71 219.248 143.537 220.473C145.816 225.173 148.406 230.332 151.305 235.95C154.51 241.362 158.489 247.589 163.24 254.631L305.466 465.446C310.217 472.488 315.467 476.967 321.215 478.882C327.063 480.285 334.182 479.939 342.572 477.845C351.062 475.238 361.902 471.491 375.093 466.606C377.65 465.772 380.107 465.452 382.465 465.644C384.616 465.53 386.414 466.544 387.86 468.688C390.339 472.362 389.435 475.645 385.147 478.536C377.185 483.906 368.862 489.073 360.18 494.037C352.011 499.1 343.841 504.164 335.672 509.228C327.809 514.085 320.049 519.095 312.393 524.258C304.736 529.421 297.03 534.841 289.274 540.517C281.518 546.193 273.608 551.972 265.546 557.855C257.996 563.837 250.24 569.513 242.278 574.883Z" fill="#0B1114"/>
<path d="M485.308 869.733C478.733 869.733 472.611 869.166 466.942 868.033C461.5 866.899 456.512 865.766 451.977 864.632C448.576 863.499 445.401 862.592 442.454 861.912C439.733 861.232 437.465 860.892 435.651 860.892C433.384 860.892 431.23 861.345 429.189 862.252C427.148 862.932 425.221 863.952 423.407 865.312C421.367 866.899 419.779 867.692 418.646 867.692C416.605 867.692 415.018 867.239 413.884 866.332C412.977 865.425 412.523 864.405 412.523 863.272C412.523 861.232 413.09 857.264 414.224 851.37C415.585 845.476 416.151 838.109 415.925 829.267L414.564 677.948C414.564 672.054 413.657 666.84 411.843 662.306C410.256 657.545 406.742 654.598 401.3 653.465C400.166 653.238 399.146 652.671 398.239 651.765C397.558 650.858 397.218 649.611 397.218 648.024C397.218 646.891 397.558 645.871 398.239 644.964C398.919 644.057 399.826 643.49 400.96 643.264C405.948 642.357 411.73 640.883 418.305 638.843C424.881 636.576 431.23 634.309 437.352 632.042C443.701 629.548 448.576 627.735 451.977 626.601C454.244 625.695 455.832 625.241 456.739 625.241C458.099 625.241 459.006 625.695 459.46 626.601C460.14 627.282 460.48 628.188 460.48 629.322C460.48 630.682 460.14 633.516 459.46 637.823C459.006 642.13 458.779 646.437 458.779 650.744V723.514C458.779 726.461 459.006 728.841 459.46 730.655C459.913 732.242 460.707 733.035 461.84 733.035C468.869 728.274 476.125 724.647 483.608 722.154C491.317 719.433 498.573 718.073 505.375 718.073C517.166 718.073 527.823 721.134 537.346 727.254C546.869 733.375 554.352 741.763 559.794 752.418C565.462 763.072 568.297 775.087 568.297 788.462C568.297 804.331 564.782 818.499 557.753 830.968C550.724 843.209 540.974 852.731 528.503 859.531C516.259 866.332 501.861 869.733 485.308 869.733ZM491.43 855.451C497.553 855.451 502.768 852.844 507.076 847.63C511.384 842.189 514.672 835.048 516.939 826.207C519.433 817.366 520.68 807.731 520.68 797.303C520.68 788.236 519.433 779.054 516.939 769.76C514.672 760.465 510.93 752.758 505.715 746.637C500.727 740.289 494.265 737.116 486.329 737.116C482.247 737.116 477.486 737.796 472.044 739.156C466.602 740.289 462.18 742.216 458.779 744.937V817.366C458.779 824.62 460.253 831.194 463.201 837.089C466.375 842.983 470.457 847.517 475.445 850.69C480.433 853.864 485.762 855.451 491.43 855.451Z" fill="#0B1114"/>
<path d="M611.761 487.46C605.721 482.023 600.135 475.255 595.002 467.155C589.869 459.055 586.191 451.272 583.969 443.804C581.774 436.858 581.912 432.013 584.384 429.268C586.609 426.798 590.028 424.657 594.641 422.847C599.529 421.283 604.458 420.502 609.428 420.503C614.398 420.504 617.981 421.493 620.177 423.47C622.922 425.941 624.775 428.852 625.736 432.201C626.696 435.551 627.423 439.435 627.916 443.855C628.271 450.636 629.176 457.911 630.629 465.681C632.605 473.423 637.298 480.63 644.711 487.303C654.319 495.952 665.466 501.514 678.151 503.987C691.358 506.434 704.648 505.476 718.021 501.114C731.669 496.999 743.684 489.178 754.066 477.65C763.706 466.946 771.068 455.184 776.15 442.365C781.507 429.793 783.487 417.659 782.089 405.964C780.939 393.994 775.422 383.561 765.539 374.664C761.147 370.71 755.862 367.195 749.684 364.119C743.781 361.29 737.919 359.244 732.098 357.979C729.71 357.32 727.912 355.453 726.704 352.378C725.497 349.303 725.909 347.189 727.941 346.037C732.994 342.634 737.992 340.672 742.935 340.152C748.152 339.878 752.888 340.415 757.144 341.761C763.514 343.519 771.065 345.346 779.796 347.242C788.774 348.864 798.11 349.813 807.803 350.09C817.743 350.092 827.216 348.681 836.223 345.855C845.23 343.029 852.947 338.049 859.374 330.912C868.767 320.482 873.493 308.336 873.551 294.472C873.856 280.334 868.655 268.446 857.949 258.808C848.066 249.911 838.497 244.528 829.244 242.659C819.991 240.791 811.342 240.459 803.296 241.665C795.251 242.871 788.523 244.27 783.114 245.861C777.704 247.452 774.313 247.63 772.94 246.394C771.568 245.158 770.662 242.852 770.223 239.475C770.307 236.071 771.337 233.271 773.314 231.076C776.033 228.057 781.498 225.024 789.709 221.979C798.167 218.659 808.272 216.822 820.024 216.468C832.051 216.361 844.997 218.82 858.862 223.847C872.975 228.6 887.306 237.525 901.856 250.623C911.465 259.273 918.67 269.487 923.473 281.265C928.276 293.043 930.071 304.848 928.861 316.68C927.924 328.759 923.13 339.601 914.479 349.208C908.794 355.521 900.843 361.037 890.628 365.757C880.934 370.449 869.305 373.15 855.74 373.861C842.697 374.544 828.062 372.304 811.835 367.139C810.765 366.672 809.859 366.85 809.117 367.674C808.623 368.223 808.924 368.991 810.023 369.98C822.651 381.348 831.311 394.363 836.003 409.023C840.943 423.409 841.969 438.001 839.083 452.797C836.471 467.84 829.603 481.538 818.48 493.889C804.637 509.259 788.86 520.154 771.148 526.574C753.683 532.72 735.368 535.118 716.202 533.768C697.284 532.144 678.846 527.226 660.89 519.014C642.962 511.323 626.585 500.805 611.761 487.46Z" fill="#0B1114"/>
</svg>
